<mxfile host="app.diagrams.net" agent="Mozilla/5.0 (Macintosh; Intel Mac OS X 10_15_7) AppleWebKit/537.36 (KHTML, like Gecko) Chrome/137.0.0.0 Safari/537.36" version="27.0.3">
  <diagram name="Page-1" id="NxsLywqPWlqC4Z0T5Jg_">
    <mxGraphModel dx="1195" dy="1511" grid="1" gridSize="10" guides="1" tooltips="1" connect="1" arrows="1" fold="1" page="1" pageScale="1" pageWidth="1169" pageHeight="827" math="0" shadow="0">
      <root>
        <mxCell id="0" />
        <mxCell id="1" parent="0" />
        <mxCell id="weHIqjTiIE6TXDT-aa-w-1" style="edgeStyle=elbowEdgeStyle;rounded=1;orthogonalLoop=1;jettySize=auto;elbow=vertical;html=1;entryX=0;entryY=0.5;entryDx=0;entryDy=0;startArrow=none;startFill=0;exitX=0.5;exitY=0;exitDx=0;exitDy=0;fillColor=#dae8fc;strokeColor=#6c8ebf;" parent="1" source="weHIqjTiIE6TXDT-aa-w-5" target="weHIqjTiIE6TXDT-aa-w-8" edge="1">
          <mxGeometry relative="1" as="geometry">
            <Array as="points">
              <mxPoint x="310" y="300" />
            </Array>
          </mxGeometry>
        </mxCell>
        <mxCell id="weHIqjTiIE6TXDT-aa-w-2" value="@imports" style="edgeLabel;html=1;align=center;verticalAlign=middle;resizable=0;points=[];" parent="weHIqjTiIE6TXDT-aa-w-1" vertex="1" connectable="0">
          <mxGeometry x="0.1007" y="-1" relative="1" as="geometry">
            <mxPoint as="offset" />
          </mxGeometry>
        </mxCell>
        <mxCell id="weHIqjTiIE6TXDT-aa-w-3" style="edgeStyle=elbowEdgeStyle;rounded=1;orthogonalLoop=1;jettySize=auto;elbow=vertical;html=1;entryX=0;entryY=0.5;entryDx=0;entryDy=0;startArrow=none;startFill=0;exitX=0.5;exitY=1;exitDx=0;exitDy=0;fillColor=#dae8fc;strokeColor=#6c8ebf;" parent="1" source="weHIqjTiIE6TXDT-aa-w-5" target="weHIqjTiIE6TXDT-aa-w-12" edge="1">
          <mxGeometry relative="1" as="geometry">
            <Array as="points">
              <mxPoint x="360" y="640" />
            </Array>
          </mxGeometry>
        </mxCell>
        <mxCell id="weHIqjTiIE6TXDT-aa-w-4" value="@imports" style="edgeLabel;html=1;align=center;verticalAlign=middle;resizable=0;points=[];" parent="weHIqjTiIE6TXDT-aa-w-3" vertex="1" connectable="0">
          <mxGeometry x="0.0309" y="-4" relative="1" as="geometry">
            <mxPoint as="offset" />
          </mxGeometry>
        </mxCell>
        <mxCell id="weHIqjTiIE6TXDT-aa-w-5" value="Design Library" style="rounded=1;whiteSpace=wrap;html=1;fillColor=#dae8fc;strokeColor=#6c8ebf;" parent="1" vertex="1">
          <mxGeometry x="250" y="440" width="120" height="60" as="geometry" />
        </mxCell>
        <mxCell id="weHIqjTiIE6TXDT-aa-w-6" style="edgeStyle=elbowEdgeStyle;rounded=1;orthogonalLoop=1;jettySize=auto;elbow=vertical;html=1;startArrow=classic;startFill=1;fillColor=#f8cecc;strokeColor=#b85450;" parent="1" source="weHIqjTiIE6TXDT-aa-w-8" target="weHIqjTiIE6TXDT-aa-w-27" edge="1">
          <mxGeometry relative="1" as="geometry" />
        </mxCell>
        <mxCell id="weHIqjTiIE6TXDT-aa-w-7" value="Authenticalted&lt;br&gt;Pathways" style="edgeLabel;html=1;align=center;verticalAlign=middle;resizable=0;points=[];" parent="weHIqjTiIE6TXDT-aa-w-6" vertex="1" connectable="0">
          <mxGeometry x="-0.3974" y="3" relative="1" as="geometry">
            <mxPoint x="-69" y="2" as="offset" />
          </mxGeometry>
        </mxCell>
        <mxCell id="weHIqjTiIE6TXDT-aa-w-8" value="Admin&lt;br&gt;Web Application" style="rounded=1;whiteSpace=wrap;html=1;fillColor=#f5f5f5;strokeColor=#666666;fontColor=#333333;strokeWidth=3;" parent="1" vertex="1">
          <mxGeometry x="680" y="270" width="120" height="60" as="geometry" />
        </mxCell>
        <mxCell id="weHIqjTiIE6TXDT-aa-w-9" value="Public Pathways" style="edgeStyle=elbowEdgeStyle;rounded=1;orthogonalLoop=1;jettySize=auto;elbow=vertical;html=1;entryX=0.5;entryY=0;entryDx=0;entryDy=0;startArrow=classic;startFill=1;fillColor=#f8cecc;strokeColor=#b85450;" parent="1" source="weHIqjTiIE6TXDT-aa-w-27" target="weHIqjTiIE6TXDT-aa-w-12" edge="1">
          <mxGeometry x="0.0588" relative="1" as="geometry">
            <mxPoint as="offset" />
          </mxGeometry>
        </mxCell>
        <mxCell id="weHIqjTiIE6TXDT-aa-w-10" style="edgeStyle=orthogonalEdgeStyle;rounded=1;orthogonalLoop=1;jettySize=auto;html=1;entryX=0.5;entryY=1;entryDx=0;entryDy=0;fillColor=#0050ef;strokeColor=#001DBC;exitX=1;exitY=0.75;exitDx=0;exitDy=0;curved=0;" parent="1" source="weHIqjTiIE6TXDT-aa-w-12" target="weHIqjTiIE6TXDT-aa-w-25" edge="1">
          <mxGeometry relative="1" as="geometry" />
        </mxCell>
        <mxCell id="weHIqjTiIE6TXDT-aa-w-11" value="Write Only" style="edgeLabel;html=1;align=center;verticalAlign=middle;resizable=0;points=[];" parent="weHIqjTiIE6TXDT-aa-w-10" vertex="1" connectable="0">
          <mxGeometry x="-0.4216" y="-3" relative="1" as="geometry">
            <mxPoint as="offset" />
          </mxGeometry>
        </mxCell>
        <mxCell id="weHIqjTiIE6TXDT-aa-w-12" value="Public&lt;br&gt;Web Application" style="rounded=1;whiteSpace=wrap;html=1;fillColor=#e1d5e7;strokeColor=#9673a6;strokeWidth=3;" parent="1" vertex="1">
          <mxGeometry x="680" y="610" width="120" height="60" as="geometry" />
        </mxCell>
        <mxCell id="weHIqjTiIE6TXDT-aa-w-13" style="edgeStyle=orthogonalEdgeStyle;rounded=1;orthogonalLoop=1;jettySize=auto;html=1;entryX=0;entryY=0.5;entryDx=0;entryDy=0;curved=0;fillColor=#fff2cc;strokeColor=#d6b656;" parent="1" source="weHIqjTiIE6TXDT-aa-w-14" target="weHIqjTiIE6TXDT-aa-w-30" edge="1">
          <mxGeometry relative="1" as="geometry" />
        </mxCell>
        <mxCell id="weHIqjTiIE6TXDT-aa-w-14" value="Admin&lt;br&gt;person@ahmadiyya.us" style="sketch=0;aspect=fixed;pointerEvents=1;shadow=0;dashed=0;html=1;strokeColor=#d6b656;labelPosition=center;verticalLabelPosition=bottom;verticalAlign=top;align=center;fillColor=#fff2cc;shape=mxgraph.azure.user;labelBackgroundColor=none;labelBorderColor=none;" parent="1" vertex="1">
          <mxGeometry x="100" y="120" width="47" height="50" as="geometry" />
        </mxCell>
        <mxCell id="weHIqjTiIE6TXDT-aa-w-15" style="edgeStyle=orthogonalEdgeStyle;rounded=1;orthogonalLoop=1;jettySize=auto;html=1;entryX=0.5;entryY=1;entryDx=0;entryDy=0;fillColor=#e1d5e7;strokeColor=#9673a6;curved=0;" parent="1" source="weHIqjTiIE6TXDT-aa-w-16" target="weHIqjTiIE6TXDT-aa-w-12" edge="1">
          <mxGeometry relative="1" as="geometry" />
        </mxCell>
        <mxCell id="weHIqjTiIE6TXDT-aa-w-16" value="Public User" style="verticalLabelPosition=bottom;html=1;verticalAlign=top;align=center;strokeColor=#9673a6;fillColor=#e1d5e7;shape=mxgraph.azure.user;labelBackgroundColor=none;labelBorderColor=none;" parent="1" vertex="1">
          <mxGeometry x="100" y="690" width="47.5" height="50" as="geometry" />
        </mxCell>
        <mxCell id="weHIqjTiIE6TXDT-aa-w-17" style="edgeStyle=orthogonalEdgeStyle;rounded=1;orthogonalLoop=1;jettySize=auto;html=1;curved=0;fillColor=#f5f5f5;strokeColor=#666666;" parent="1" source="weHIqjTiIE6TXDT-aa-w-30" target="weHIqjTiIE6TXDT-aa-w-8" edge="1">
          <mxGeometry relative="1" as="geometry" />
        </mxCell>
        <mxCell id="weHIqjTiIE6TXDT-aa-w-18" style="edgeStyle=orthogonalEdgeStyle;rounded=1;orthogonalLoop=1;jettySize=auto;html=1;entryX=1;entryY=0.5;entryDx=0;entryDy=0;fillColor=#60a917;strokeColor=#2D7600;curved=0;startArrow=classic;startFill=1;" parent="1" source="weHIqjTiIE6TXDT-aa-w-22" target="weHIqjTiIE6TXDT-aa-w-8" edge="1">
          <mxGeometry relative="1" as="geometry" />
        </mxCell>
        <mxCell id="weHIqjTiIE6TXDT-aa-w-19" value="Read / Write" style="edgeLabel;html=1;align=center;verticalAlign=middle;resizable=0;points=[];" parent="weHIqjTiIE6TXDT-aa-w-18" vertex="1" connectable="0">
          <mxGeometry x="-0.3617" relative="1" as="geometry">
            <mxPoint as="offset" />
          </mxGeometry>
        </mxCell>
        <mxCell id="weHIqjTiIE6TXDT-aa-w-20" style="edgeStyle=orthogonalEdgeStyle;rounded=1;orthogonalLoop=1;jettySize=auto;html=1;entryX=1;entryY=0.5;entryDx=0;entryDy=0;fillColor=#60a917;strokeColor=#2D7600;curved=0;" parent="1" source="weHIqjTiIE6TXDT-aa-w-22" target="weHIqjTiIE6TXDT-aa-w-12" edge="1">
          <mxGeometry relative="1" as="geometry" />
        </mxCell>
        <mxCell id="weHIqjTiIE6TXDT-aa-w-21" value="Read Only" style="edgeLabel;html=1;align=center;verticalAlign=middle;resizable=0;points=[];" parent="weHIqjTiIE6TXDT-aa-w-20" vertex="1" connectable="0">
          <mxGeometry x="-0.2432" y="1" relative="1" as="geometry">
            <mxPoint as="offset" />
          </mxGeometry>
        </mxCell>
        <mxCell id="weHIqjTiIE6TXDT-aa-w-22" value="Image Library" style="rounded=1;whiteSpace=wrap;html=1;fillColor=#60a917;strokeColor=#2D7600;fontColor=#ffffff;" parent="1" vertex="1">
          <mxGeometry x="780" y="440" width="120" height="60" as="geometry" />
        </mxCell>
        <mxCell id="weHIqjTiIE6TXDT-aa-w-23" style="edgeStyle=orthogonalEdgeStyle;rounded=1;orthogonalLoop=1;jettySize=auto;html=1;entryX=1;entryY=0.5;entryDx=0;entryDy=0;fillColor=#0050ef;strokeColor=#001DBC;curved=0;" parent="1" source="weHIqjTiIE6TXDT-aa-w-25" target="weHIqjTiIE6TXDT-aa-w-8" edge="1">
          <mxGeometry relative="1" as="geometry">
            <Array as="points">
              <mxPoint x="1020" y="300" />
            </Array>
          </mxGeometry>
        </mxCell>
        <mxCell id="weHIqjTiIE6TXDT-aa-w-24" value="Read Only" style="edgeLabel;html=1;align=center;verticalAlign=middle;resizable=0;points=[];" parent="weHIqjTiIE6TXDT-aa-w-23" vertex="1" connectable="0">
          <mxGeometry x="0.2185" y="-2" relative="1" as="geometry">
            <mxPoint as="offset" />
          </mxGeometry>
        </mxCell>
        <mxCell id="weHIqjTiIE6TXDT-aa-w-25" value="Analytics" style="rounded=1;whiteSpace=wrap;html=1;fillColor=#0050ef;strokeColor=#001DBC;fontColor=#ffffff;" parent="1" vertex="1">
          <mxGeometry x="960" y="440" width="120" height="60" as="geometry" />
        </mxCell>
        <mxCell id="weHIqjTiIE6TXDT-aa-w-26" value="" style="group" parent="1" vertex="1" connectable="0">
          <mxGeometry x="440" y="440" width="120" height="60" as="geometry" />
        </mxCell>
        <mxCell id="weHIqjTiIE6TXDT-aa-w-27" value="&lt;br&gt;&lt;br&gt;Database" style="rounded=1;whiteSpace=wrap;html=1;fillColor=#f8cecc;strokeColor=#b85450;align=center;" parent="weHIqjTiIE6TXDT-aa-w-26" vertex="1">
          <mxGeometry width="120" height="60" as="geometry" />
        </mxCell>
        <mxCell id="weHIqjTiIE6TXDT-aa-w-28" value="" style="shape=datastore;whiteSpace=wrap;html=1;fillColor=none;" parent="weHIqjTiIE6TXDT-aa-w-26" vertex="1">
          <mxGeometry x="50" y="10" width="20" height="20" as="geometry" />
        </mxCell>
        <mxCell id="weHIqjTiIE6TXDT-aa-w-29" value="" style="group" parent="1" vertex="1" connectable="0">
          <mxGeometry x="470" y="170" width="120" height="60" as="geometry" />
        </mxCell>
        <mxCell id="weHIqjTiIE6TXDT-aa-w-30" value="&amp;nbsp; &amp;nbsp; &amp;nbsp; &amp;nbsp; &amp;nbsp;Authentication" style="rounded=1;whiteSpace=wrap;html=1;fillColor=#fff2cc;strokeColor=#d6b656;" parent="weHIqjTiIE6TXDT-aa-w-29" vertex="1">
          <mxGeometry width="120" height="60" as="geometry" />
        </mxCell>
        <mxCell id="weHIqjTiIE6TXDT-aa-w-31" value="" style="shape=image;html=1;verticalAlign=top;verticalLabelPosition=bottom;labelBackgroundColor=#ffffff;imageAspect=0;aspect=fixed;image=https://cdn2.iconfinder.com/data/icons/thin-line-icons-for-seo-and-development-1/64/SEO_key-128.png;labelBorderColor=default;" parent="weHIqjTiIE6TXDT-aa-w-29" vertex="1">
          <mxGeometry x="10" y="15" width="30" height="30" as="geometry" />
        </mxCell>
        <mxCell id="weHIqjTiIE6TXDT-aa-w-32" style="edgeStyle=orthogonalEdgeStyle;rounded=1;orthogonalLoop=1;jettySize=auto;html=1;curved=0;fillColor=#fff2cc;strokeColor=#d6b656;" parent="1" source="weHIqjTiIE6TXDT-aa-w-34" target="weHIqjTiIE6TXDT-aa-w-38" edge="1">
          <mxGeometry relative="1" as="geometry" />
        </mxCell>
        <mxCell id="weHIqjTiIE6TXDT-aa-w-33" value="Edit Permission" style="edgeLabel;html=1;align=center;verticalAlign=middle;resizable=0;points=[];" parent="weHIqjTiIE6TXDT-aa-w-32" vertex="1" connectable="0">
          <mxGeometry x="0.0462" y="-2" relative="1" as="geometry">
            <mxPoint as="offset" />
          </mxGeometry>
        </mxCell>
        <mxCell id="weHIqjTiIE6TXDT-aa-w-34" value="Admin" style="sketch=0;aspect=fixed;pointerEvents=1;shadow=0;dashed=0;html=1;strokeColor=#d6b656;labelPosition=center;verticalLabelPosition=bottom;verticalAlign=top;align=center;fillColor=#fff2cc;shape=mxgraph.azure.user;labelBackgroundColor=none;labelBorderColor=none;" parent="1" vertex="1">
          <mxGeometry x="110.5" y="-550" width="47" height="50" as="geometry" />
        </mxCell>
        <mxCell id="weHIqjTiIE6TXDT-aa-w-35" value="Public&lt;br&gt;Web Application" style="rounded=1;whiteSpace=wrap;html=1;fillColor=#e1d5e7;strokeColor=#9673a6;" parent="1" vertex="1">
          <mxGeometry x="505.5" y="-310" width="120" height="60" as="geometry" />
        </mxCell>
        <mxCell id="weHIqjTiIE6TXDT-aa-w-36" style="edgeStyle=orthogonalEdgeStyle;rounded=1;orthogonalLoop=1;jettySize=auto;html=1;curved=0;fillColor=#fff2cc;strokeColor=#d6b656;" parent="1" source="weHIqjTiIE6TXDT-aa-w-38" target="weHIqjTiIE6TXDT-aa-w-35" edge="1">
          <mxGeometry relative="1" as="geometry" />
        </mxCell>
        <mxCell id="weHIqjTiIE6TXDT-aa-w-37" value="Read Only" style="edgeLabel;html=1;align=center;verticalAlign=middle;resizable=0;points=[];" parent="weHIqjTiIE6TXDT-aa-w-36" vertex="1" connectable="0">
          <mxGeometry x="0.2671" y="2" relative="1" as="geometry">
            <mxPoint x="-2" y="36" as="offset" />
          </mxGeometry>
        </mxCell>
        <mxCell id="weHIqjTiIE6TXDT-aa-w-38" value="Google &lt;br&gt;Spreadsheet" style="rounded=1;whiteSpace=wrap;html=1;fillColor=#fff2cc;strokeColor=#d6b656;" parent="1" vertex="1">
          <mxGeometry x="320.5" y="-450" width="120" height="60" as="geometry" />
        </mxCell>
        <mxCell id="weHIqjTiIE6TXDT-aa-w-39" style="edgeStyle=orthogonalEdgeStyle;rounded=1;orthogonalLoop=1;jettySize=auto;html=1;entryX=0.5;entryY=1;entryDx=0;entryDy=0;fillColor=#e1d5e7;strokeColor=#9673a6;curved=0;" parent="1" source="weHIqjTiIE6TXDT-aa-w-40" target="weHIqjTiIE6TXDT-aa-w-35" edge="1">
          <mxGeometry relative="1" as="geometry" />
        </mxCell>
        <mxCell id="weHIqjTiIE6TXDT-aa-w-40" value="Public User" style="verticalLabelPosition=bottom;html=1;verticalAlign=top;align=center;strokeColor=#9673a6;fillColor=#e1d5e7;shape=mxgraph.azure.user;labelBackgroundColor=none;labelBorderColor=none;" parent="1" vertex="1">
          <mxGeometry x="110" y="-200" width="47.5" height="50" as="geometry" />
        </mxCell>
        <mxCell id="weHIqjTiIE6TXDT-aa-w-41" value="&lt;h1&gt;Current Architecture&lt;/h1&gt;" style="text;html=1;strokeColor=none;fillColor=none;spacing=5;spacingTop=-20;whiteSpace=wrap;overflow=hidden;rounded=0;" parent="1" vertex="1">
          <mxGeometry x="100" y="-620" width="260" height="50" as="geometry" />
        </mxCell>
        <mxCell id="weHIqjTiIE6TXDT-aa-w-42" value="&lt;h1&gt;Proposed Architecture&lt;/h1&gt;" style="text;html=1;strokeColor=none;fillColor=none;spacing=5;spacingTop=-20;whiteSpace=wrap;overflow=hidden;rounded=0;" parent="1" vertex="1">
          <mxGeometry x="100" y="59" width="355" height="50" as="geometry" />
        </mxCell>
      </root>
    </mxGraphModel>
  </diagram>
</mxfile>
